<?xml version="1.0" encoding="UTF-8"?>
<svg width="1440px" height="614px" viewBox="0 0 1440 614" version="1.1" xmlns="http://www.w3.org/2000/svg" xmlns:xlink="http://www.w3.org/1999/xlink">
    <!-- Generator: Sketch 51.3 (57544) - http://www.bohemiancoding.com/sketch -->
    <title>Group 2</title>
    <desc>Created with Sketch.</desc>
    <defs>
        <path d="M1078.03681,1.2324104 C852.927619,26.0495275 805.034106,226.935551 805.034106,226.935551 C805.034106,226.935551 789.863297,36.6251102 710.400125,43.1750274 C630.92758,49.7218167 548.636482,456.339051 548.636482,456.339051 C548.636482,456.339051 534.965567,222.303064 472.229346,220.426297 C409.496251,218.546402 317.458962,482.144599 317.458962,482.144599 C317.458962,482.144599 306.806585,380.577091 280.099085,375.428493 C253.388461,370.279895 194.56759,492.591936 194.56759,492.591936 C194.56759,492.591936 180.709188,450.411595 135.462365,477.571543 C90.2124165,504.734619 0,614 0,614 L1914,614 C1914,614 1871.01239,520.393112 1791.82733,551.778914 C1791.82733,551.778914 1789.98058,391.484235 1649.29671,421.790896 C1649.29671,421.790896 1647.96243,70.5820831 1601.78754,70.5977228 C1555.60954,70.6133625 1545.7696,335.447097 1545.7696,335.447097 C1545.7696,335.447097 1319.08552,0.0250235615 1100.65085,0 C1093.09201,0 1085.56754,0.400376984 1078.03681,1.2324104" id="path-1"></path>
        <linearGradient x1="49.999961%" y1="125.776365%" x2="49.999961%" y2="-2.03870511%" id="linearGradient-3">
            <stop stop-color="#70AFB8" offset="0%"></stop>
            <stop stop-color="#50DBDB" offset="100%"></stop>
        </linearGradient>
        <path d="M9.31272222,0.76105 C5.67,9.1667 2.62338889,19.45405 0.0858888889,30.30405 C36.5469444,31.08835 74.6158889,13.2091 85.3007778,7.77945 C84.5371111,3.50765 84.0054444,0.76105 84.0054444,0.76105 L9.31272222,0.76105 Z" id="path-4"></path>
        <linearGradient x1="53.567676%" y1="-38.6286417%" x2="47.0655354%" y2="144.501409%" id="linearGradient-6">
            <stop stop-color="#0B2F69" offset="0%"></stop>
            <stop stop-color="#0B2F69" offset="100%"></stop>
        </linearGradient>
        <path d="M21.7084299,3.77301923 L28.336132,0.655194956 C27.3814715,17.527272 24.6273326,59.0353248 19.3726617,85.7401675 C19.3726617,85.7401675 22.8795447,85.9596417 22.6614751,88.8079646 C22.6162458,89.3921532 20.9879924,89.819805 18.4002325,90.1296509 C15.8964699,87.8881096 -0.51852117,72.8880182 0.0888431911,65.8051348 C0.746282805,58.136449 8.86008915,51.565134 6.66808533,36.886185 C4.47446617,22.2088497 21.7084299,3.77301923 21.7084299,3.77301923 Z" id="path-7"></path>
        <path d="M23.1977649,18.54234 L26.260432,0.716518622 L42.1940545,0.716518622 L42.1940545,27.3051691 L30.1517637,27.3051691 C25.1926983,39.4553238 14.1228367,67.7303751 10.1991983,87.1957977 C5.82811334,86.8811104 2.86559675,86.3759971 2.80421418,85.5804032 C2.5845292,82.7320803 6.09302758,82.5126061 6.09302758,82.5126061 C3.99471294,71.8422883 2.29376966,58.8093955 0.948199149,45.9281981 L0.948199149,45.9265844 L23.1977649,18.54234 Z" id="path-9"></path>
        <polygon id="path-11" points="0 470 190.634874 470 190.634874 0.325271119 0 0.325271119"></polygon>
        <path d="M12.4797692,174.778385 L32.4609615,174.778385 C32.4609615,174.778385 34.7427692,154.630022 37.0261538,149.66633 C39.3111154,144.702638 36.4568846,133.605714 39.5949615,127.183725 C42.7361923,120.758511 38.7402692,113.457351 39.5949615,107.036976 C39.7605385,105.806135 40.2367692,99.9342339 40.8911923,91.1328353 C9.31173077,61.8443102 0.977692308,0.153862047 0.977692308,0.153862047 L12.4797692,174.778385 Z" id="path-13"></path>
        <linearGradient x1="0.00117142744%" y1="49.9993059%" x2="100.001567%" y2="49.9993059%" id="linearGradient-15">
            <stop stop-color="#0B2F69" offset="0%"></stop>
            <stop stop-color="#0B2F69" offset="100%"></stop>
        </linearGradient>
        <polygon id="path-16" points="1.26519231 0.770526316 0.768269231 9.12315789 19.6251923 20.9747368 18.4253846 0.770526316"></polygon>
        <linearGradient x1="0.000837378641%" y1="49.9965544%" x2="99.9982351%" y2="49.9965544%" id="linearGradient-18">
            <stop stop-color="#EF4F4F" offset="0%"></stop>
            <stop stop-color="#EF4F4F" offset="100%"></stop>
        </linearGradient>
        <polygon id="path-19" points="0.00634270811 0.111100777 52.0696857 0.111100777 52.0696857 125.149235 0.00634270811 125.149235"></polygon>
        <path d="M61.6846738,30.9248792 C61.6846738,47.9470378 47.8819782,61.7464763 30.8558019,61.7464763 C13.8312398,61.7464763 0.0285442131,47.9470378 0.0285442131,30.9248792 C0.0285442131,13.9043343 13.8312398,0.104895744 30.8558019,0.104895744" id="path-21"></path>
        <polygon id="path-23" points="0.000322832315 0.325271119 61.6564525 0.325271119 61.6564525 61.9676586 0.000322832315 61.9676586"></polygon>
        <polygon id="path-25" points="0 470 190.496892 470 190.496892 0.325271119 0 0.325271119"></polygon>
        <polygon id="path-27" points="0 0.0069875 57.8462222 0.0069875 57.8462222 13 0 13"></polygon>
        <polygon id="path-29" points="0.998575 0.0069875 58.8443056 0.0069875 58.8443056 13 0.998575 13"></polygon>
        <polygon id="path-31" points="0.000240492143 0.0003 95.8038112 0.0003 95.8038112 41.5802 0.000240492143 41.5802"></polygon>
        <linearGradient x1="49.9453552%" y1="-96.5903783%" x2="49.9453552%" y2="188.836992%" id="linearGradient-33">
            <stop stop-color="#000000" offset="0%"></stop>
            <stop stop-color="#000000" stop-opacity="0" offset="93%"></stop>
        </linearGradient>
        <linearGradient x1="49.9335989%" y1="-172.765246%" x2="49.9335989%" y2="337.761069%" id="linearGradient-34">
            <stop stop-color="#000000" offset="0%"></stop>
            <stop stop-color="#000000" stop-opacity="0" offset="93%"></stop>
        </linearGradient>
        <linearGradient x1="0.105559465%" y1="50.262697%" x2="100.087966%" y2="50.262697%" id="linearGradient-35">
            <stop stop-color="#000000" offset="0%"></stop>
            <stop stop-color="#000000" stop-opacity="0" offset="93%"></stop>
        </linearGradient>
        <linearGradient x1="-79.8560885%" y1="48.6447241%" x2="253.00357%" y2="52.1297193%" id="linearGradient-36">
            <stop stop-color="#0C421E" offset="0%"></stop>
            <stop stop-color="#0C421E" stop-opacity="0" offset="100%"></stop>
        </linearGradient>
        <linearGradient x1="49.9712809%" y1="131.476731%" x2="49.9712809%" y2="-41.9201173%" id="linearGradient-37">
            <stop stop-color="#0C421E" offset="0%"></stop>
            <stop stop-color="#0C421E" stop-opacity="0" offset="100%"></stop>
        </linearGradient>
        <linearGradient x1="50%" y1="-96.6067864%" x2="50%" y2="188.822355%" id="linearGradient-38">
            <stop stop-color="#000000" offset="0%"></stop>
            <stop stop-color="#000000" stop-opacity="0" offset="93%"></stop>
        </linearGradient>
        <linearGradient x1="50%" y1="-172.702944%" x2="50%" y2="337.555754%" id="linearGradient-39">
            <stop stop-color="#000000" offset="0%"></stop>
            <stop stop-color="#000000" stop-opacity="0" offset="93%"></stop>
        </linearGradient>
        <linearGradient x1="-6.67803323e-15%" y1="49.9532273%" x2="100%" y2="49.9532273%" id="linearGradient-40">
            <stop stop-color="#000000" offset="0%"></stop>
            <stop stop-color="#000000" stop-opacity="0" offset="93%"></stop>
        </linearGradient>
        <linearGradient x1="50.0048643%" y1="-400.352734%" x2="50.0048643%" y2="-29.9823633%" id="linearGradient-41">
            <stop stop-color="#6AB883" offset="0%"></stop>
            <stop stop-color="#58A38F" offset="5%"></stop>
            <stop stop-color="#4087A0" offset="14%"></stop>
            <stop stop-color="#2E71AD" offset="24%"></stop>
            <stop stop-color="#2062B6" offset="35%"></stop>
            <stop stop-color="#1859BB" offset="47%"></stop>
            <stop stop-color="#1656BD" offset="64%"></stop>
            <stop stop-color="#0C3069" offset="100%"></stop>
        </linearGradient>
        <linearGradient x1="50.0048643%" y1="-63.4920635%" x2="50.0048643%" y2="480.31746%" id="linearGradient-42">
            <stop stop-color="#6AB883" offset="0%"></stop>
            <stop stop-color="#58A38F" offset="5%"></stop>
            <stop stop-color="#4087A0" offset="14%"></stop>
            <stop stop-color="#2E71AD" offset="24%"></stop>
            <stop stop-color="#2062B6" offset="35%"></stop>
            <stop stop-color="#1859BB" offset="47%"></stop>
            <stop stop-color="#1656BD" offset="64%"></stop>
            <stop stop-color="#0C3069" offset="100%"></stop>
        </linearGradient>
        <linearGradient x1="50%" y1="16.0162602%" x2="50%" y2="122.601626%" id="linearGradient-43">
            <stop stop-color="#F04F4F" offset="0%"></stop>
            <stop stop-color="#F04F4F" stop-opacity="0.99" offset="15%"></stop>
            <stop stop-color="#F04F4F" stop-opacity="0.94" offset="28%"></stop>
            <stop stop-color="#F04F4F" stop-opacity="0.86" offset="40%"></stop>
            <stop stop-color="#F04F4F" stop-opacity="0.76" offset="53%"></stop>
            <stop stop-color="#F04F4F" stop-opacity="0.62" offset="65%"></stop>
            <stop stop-color="#F04F4F" stop-opacity="0.45" offset="76%"></stop>
            <stop stop-color="#F04F4F" stop-opacity="0.25" offset="88%"></stop>
            <stop stop-color="#F04F4F" stop-opacity="0.02" offset="99%"></stop>
            <stop stop-color="#F04F4F" stop-opacity="0" offset="100%"></stop>
        </linearGradient>
        <linearGradient x1="59.2682927%" y1="-46.097561%" x2="44.8780488%" y2="103.170732%" id="linearGradient-44">
            <stop stop-color="#F04F4F" offset="0%"></stop>
            <stop stop-color="#F04F4F" stop-opacity="0.99" offset="15%"></stop>
            <stop stop-color="#F04F4F" stop-opacity="0.94" offset="28%"></stop>
            <stop stop-color="#F04F4F" stop-opacity="0.86" offset="40%"></stop>
            <stop stop-color="#F04F4F" stop-opacity="0.76" offset="53%"></stop>
            <stop stop-color="#F04F4F" stop-opacity="0.62" offset="65%"></stop>
            <stop stop-color="#F04F4F" stop-opacity="0.45" offset="76%"></stop>
            <stop stop-color="#F04F4F" stop-opacity="0.25" offset="88%"></stop>
            <stop stop-color="#F04F4F" stop-opacity="0.02" offset="99%"></stop>
            <stop stop-color="#F04F4F" stop-opacity="0" offset="100%"></stop>
        </linearGradient>
    </defs>
    <g id="Page-1" stroke="none" stroke-width="1" fill="none" fill-rule="evenodd">
        <g id="Desktop-HD-Copy-2" transform="translate(0.000000, -409.000000)">
            <g id="Group-2" transform="translate(0.000000, 409.000000)">
                <g id="Group-12">
                    <mask id="mask-2" fill="white">
                        <use xlink:href="#path-1"></use>
                    </mask>
                    <g id="Clip-11"></g>
                    <path d="M1078.03681,1.2324104 C852.927619,26.0495275 805.034106,226.935551 805.034106,226.935551 C805.034106,226.935551 789.863297,36.6251102 710.400125,43.1750274 C630.92758,49.7218167 548.636482,456.339051 548.636482,456.339051 C548.636482,456.339051 534.965567,222.303064 472.229346,220.426297 C409.496251,218.546402 317.458962,482.144599 317.458962,482.144599 C317.458962,482.144599 306.806585,380.577091 280.099085,375.428493 C253.388461,370.279895 194.56759,492.591936 194.56759,492.591936 C194.56759,492.591936 180.709188,450.411595 135.462365,477.571543 C90.2124165,504.734619 0,614 0,614 L1914,614 C1914,614 1871.01239,520.393112 1791.82733,551.778914 C1791.82733,551.778914 1789.98058,391.484235 1649.29671,421.790896 C1649.29671,421.790896 1647.96243,70.5820831 1601.78754,70.5977228 C1555.60954,70.6133625 1545.7696,335.447097 1545.7696,335.447097 C1545.7696,335.447097 1319.08552,0.0250235615 1100.65085,0 C1093.09201,0 1085.56754,0.400376984 1078.03681,1.2324104" id="Fill-10" fill="url(#linearGradient-3)" mask="url(#mask-2)"></path>
                </g>
                <g id="Group" transform="translate(1167.000000, 101.000000)">
                    <g id="Group-92">
                        <g id="Group-19" transform="translate(22.000000, 168.000000)">
                            <path d="M37.1894397,265.768835 L35.4319521,286.455744 C35.4319521,286.455744 37.7752689,293.156616 36.3106959,295.487354 C34.8461228,297.816482 17.9800673,300.585039 17.9800673,300.585039 C17.9800673,300.585039 0.866409877,301.895274 0.13493251,299.857488 C-0.598163169,297.816482 16.9767134,289.367557 16.9767134,289.367557 L25.1799407,281.35645 L24.8854078,265.768835 L37.1894397,265.768835 Z" id="Fill-1" fill="#2E4469"></path>
                            <path d="M17.9807146,300.584878 C17.9807146,300.584878 34.8451519,297.816321 36.3113432,295.487193 C36.982943,294.415182 36.8502414,292.424075 36.512014,290.581054 C27.1338916,292.329107 29.3946745,287.41814 26.9769152,283.384418 C26.442872,282.494295 25.7842187,281.881027 25.0851076,281.448038 L16.9773607,289.367396 C16.9773607,289.367396 -0.597515844,297.816321 0.133961523,299.857327 C0.867057202,301.895113 17.9807146,300.584878 17.9807146,300.584878" id="Fill-3" fill="#1E2D45"></path>
                            <path d="M92.7936951,265.768835 L94.5511827,286.455744 C94.5511827,286.455744 92.2078658,293.156616 93.6724389,295.487354 C95.1370119,297.816482 112.001449,300.585039 112.001449,300.585039 C112.001449,300.585039 129.115107,301.895274 129.848202,299.857488 C130.581298,297.816482 113.004803,289.367557 113.004803,289.367557 L104.803194,281.35645 L105.096109,265.768835 L92.7936951,265.768835 Z" id="Fill-5" fill="#2E4469"></path>
                            <path d="M112.001611,300.584878 C112.001611,300.584878 95.1371738,297.816321 93.6726007,295.487193 C92.9993826,294.415182 93.1320843,292.424075 93.4719299,290.581054 C102.848434,292.329107 100.589269,287.41814 103.00541,283.384418 C103.539454,282.494295 104.198107,281.881027 104.897218,281.448038 L113.004965,289.367396 C113.004965,289.367396 130.579841,297.816321 129.848364,299.857327 C129.116887,301.895113 112.001611,300.584878 112.001611,300.584878" id="Fill-7" fill="#1E2D45"></path>
                            <path d="M116.668501,0.790487166 C116.668501,0.790487166 121.610828,27.1513267 123.075402,44.6334711 C124.539975,62.1140059 114.873792,194.970899 113.995049,201.380428 C113.116305,207.789958 117.217109,215.073514 113.995049,221.483043 C110.77137,227.894182 113.702134,238.965188 111.358817,243.918006 C109.0155,248.870824 106.672183,268.973439 106.672183,268.973439 L86.1665425,268.973439 L73.2782997,78.7221235 C73.2782997,78.7221235 52.7564756,200.652878 40.1773306,268.973439 L20.5520517,268.973439 C20.5520517,268.973439 12.6433573,210.120696 16.1583326,204.876535 C16.1583326,204.876535 18.7945641,127.667621 21.137881,112.809166 C21.137881,112.809166 25.8245147,38.5265513 41.6419036,0.790487166 L116.668501,0.790487166 Z" id="Fill-9" fill="#1656BD"></path>
                            <path d="M106.012721,0.790487166 C106.012721,0.790487166 99.4634093,24.6226048 122.619847,39.9076102" id="Stroke-11" stroke="#1E2D45" stroke-width="1.02"></path>
                            <path d="M47.7613915,0.790487166 C47.7613915,0.790487166 54.3107032,24.6226048 31.1542659,39.9076102" id="Stroke-13" stroke="#1E2D45" stroke-width="1.02"></path>
                            <path d="M73.9372766,0.790487166 L73.9372766,77.7016209" id="Stroke-15" stroke="#1E2D45" stroke-width="1.02"></path>
                            <path d="M85.5808751,0.930363636 L85.5808751,23.3653262 C85.5808751,32.6866684 78.8438391,45.2159947 73.9371148,46.8175722" id="Stroke-17" stroke="#1E2D45" stroke-width="1.02"></path>
                        </g>
                        <g id="Group-22" transform="translate(55.000000, 168.000000)">
                            <mask id="mask-5" fill="white">
                                <use xlink:href="#path-4"></use>
                            </mask>
                            <g id="Clip-21"></g>
                            <path d="M9.31272222,0.76105 C5.67,9.1667 2.62338889,19.45405 0.0858888889,30.30405 C36.5469444,31.08835 74.6158889,13.2091 85.3007778,7.77945 C84.5371111,3.50765 84.0054444,0.76105 84.0054444,0.76105 L9.31272222,0.76105 Z" id="Fill-20" fill="url(#linearGradient-6)" mask="url(#mask-5)"></path>
                        </g>
                        <g id="Group-44">
                            <path d="M142.137152,166.819508 C148.861774,132.642861 151.493148,74.2223863 151.493148,74.2223863 C132.488782,68.3805003 101.576197,65.4595572 101.576197,65.4595572 C101.576197,65.4595572 70.6636128,68.3805003 51.6592465,74.2223863 C51.6592465,74.2223863 54.2906203,132.642861 61.0152422,166.819508 C61.0152422,166.819508 57.5067438,167.038982 57.7264288,169.885691 C57.9444984,172.734014 95.2101788,171.857731 101.576197,171.857731 C107.942216,171.857731 145.206281,172.734014 145.425966,169.885691 C145.645651,167.038982 142.137152,166.819508 142.137152,166.819508" id="Fill-23" fill="#FFFFFF"></path>
                            <g id="Group-27" transform="translate(122.765137, 81.078856)">
                                <mask id="mask-8" fill="white">
                                    <use xlink:href="#path-7"></use>
                                </mask>
                                <g id="Clip-26"></g>
                                <path d="M21.7084299,3.77301923 C21.7084299,3.77301923 4.47446617,22.2088497 6.66808533,36.886185 C8.86008915,51.565134 0.746282805,58.136449 0.0888431911,65.8051348 C-0.51852117,72.8880182 15.8964699,87.8881096 18.4002325,90.1296509 C20.9879924,89.819805 22.6162458,89.3921532 22.6614751,88.8079646 C22.8795447,85.9596417 19.3726617,85.7401675 19.3726617,85.7401675 C24.6273326,59.0353248 27.3814715,17.527272 28.336132,0.655194956 L21.7084299,3.77301923 Z" id="Fill-25" mask="url(#mask-8)"></path>
                            </g>
                            <g id="Group-30" transform="translate(54.921245, 84.306418)">
                                <mask id="mask-10" fill="white">
                                    <use xlink:href="#path-9"></use>
                                </mask>
                                <g id="Clip-29"></g>
                                <path d="M23.1977649,18.54234 L0.948199149,45.9265844 L0.948199149,45.9281981 C2.29376966,58.8093955 3.99471294,71.8422883 6.09302758,82.5126061 C6.09302758,82.5126061 2.5845292,82.7320803 2.80421418,85.5804032 C2.86559675,86.3759971 5.82811334,86.8811104 10.1991983,87.1957977 C14.1228367,67.7303751 25.1926983,39.4553238 30.1517637,27.3051691 L42.1940545,27.3051691 L42.1940545,0.716518622 L26.260432,0.716518622 L23.1977649,18.54234 Z" id="Fill-28" mask="url(#mask-10)"></path>
                            </g>
                            <path d="M87.531381,67.1204603 L92.8829718,76.7498896 C93.8037103,78.4088562 96.0990953,78.638013 97.3299773,77.1969069 L101.576682,72.2313037" id="Stroke-31" stroke="#1656BD" stroke-width="0.781" stroke-linecap="round" stroke-linejoin="round"></path>
                            <path d="M115.846998,67.1204603 L110.495408,76.7498896 C109.574669,78.4088562 107.280899,78.638013 106.048402,77.1969069 L101.803313,72.2313037" id="Stroke-33" stroke="#1656BD" stroke-width="0.781" stroke-linecap="round" stroke-linejoin="round"></path>
                            <path d="M134.476123,110.516798 C134.476123,110.516798 136.968579,123.33183 147.151624,131.478195" id="Stroke-35" stroke="#1656BD" stroke-width="0.781"></path>
                            <path d="M127.898012,105.696758 C127.898012,105.696758 132.204484,125.304193 146.78769,134.833568" id="Stroke-37" stroke="#1656BD" stroke-width="0.781"></path>
                            <path d="M102.150609,75.3910863 L102.150609,170.324962" id="Stroke-39" stroke="#1656BD" stroke-width="0.781" stroke-linecap="round" stroke-linejoin="round"></path>
                            <mask id="mask-12" fill="white">
                                <use xlink:href="#path-11"></use>
                            </mask>
                            <g id="Clip-42"></g>
                            <polygon id="Fill-41" fill="#1E2D45" mask="url(#mask-12)" points="76.7863624 108.106455 98.2767227 108.106455 98.2767227 71.1557189 76.7863624 71.1557189"></polygon>
                            <path d="M141.525104,186.566212 L132.064111,193.889549 C132.064111,193.889549 134.98786,199.424817 140.087459,203.970837 L149.314228,195.387138 L141.525104,186.566212 Z" id="Fill-43" fill="#FF6D6D" mask="url(#mask-12)"></path>
                        </g>
                        <g id="Group-47" transform="translate(95.000000, 263.000000)">
                            <mask id="mask-14" fill="white">
                                <use xlink:href="#path-13"></use>
                            </mask>
                            <g id="Clip-46"></g>
                            <path d="M12.4797692,174.778385 L32.4609615,174.778385 C32.4609615,174.778385 34.7427692,154.630022 37.0261538,149.66633 C39.3111154,144.702638 36.4568846,133.605714 39.5949615,127.183725 C42.7361923,120.758511 38.7402692,113.457351 39.5949615,107.036976 C39.7605385,105.806135 40.2367692,99.9342339 40.8911923,91.1328353 C9.31173077,61.8443102 0.977692308,0.153862047 0.977692308,0.153862047 L12.4797692,174.778385 Z" id="Fill-45" fill="url(#linearGradient-15)" mask="url(#mask-14)"></path>
                        </g>
                        <path d="M113,67.8184973 L111.877569,68.9949959 C106.777282,74.3350014 98.2227179,74.3350014 93.1241039,68.9949959 L92,67.8184973 L93.7196113,38 L111.280389,38 L113,67.8184973 Z" id="Fill-48" fill="#FF6D6D"></path>
                        <g id="Group-52" transform="translate(92.000000, 38.000000)">
                            <mask id="mask-17" fill="white">
                                <use xlink:href="#path-16"></use>
                            </mask>
                            <g id="Clip-51"></g>
                            <polygon id="Fill-50" fill="url(#linearGradient-18)" mask="url(#mask-17)" points="1.26519231 0.770526316 0.768269231 9.12315789 19.6251923 20.9747368 18.4253846 0.770526316"></polygon>
                        </g>
                        <g id="Group-91">
                            <path d="M111.860913,7.2214401 C111.860913,7.2214401 106.111269,-5.59359228 90.0051651,3.71630846 C73.8990609,13.027823 63.9283849,22.8864091 66.6676171,26.2818037 C69.4068493,29.6771982 85.6227164,23.4334808 85.6227164,23.4334808 L87.0464069,30.334007 L116.191708,30.9956571 C116.191708,30.9956571 120.251325,24.6083131 121.345726,16.8266627 C122.441742,9.04501226 111.860913,7.2214401 111.860913,7.2214401" id="Fill-53" fill="#1E2D45"></path>
                            <path d="M118.368082,28.3621284 C117.696591,26.8500159 116.10987,27.0791727 114.879879,27.5439416 C114.955745,27.1711582 114.994485,26.9532978 114.994485,26.9532978 C106.484625,20.3610038 103.931021,14.6175583 103.931021,14.6175583 C98.3992895,18.2340408 88.6126279,21.8489095 88.6126279,21.8489095 C88.6126279,23.9548933 88.7127059,25.9624365 88.8918779,27.8796079 C87.6651151,27.2695989 85.4617845,26.5078944 84.636948,28.3621284 C83.468295,30.9909771 86.2381962,35.8532983 90.0395467,34.810796 C90.0427751,34.8091822 90.0460034,34.8075684 90.0492317,34.8059546 C92.0265796,42.5230538 96.0587553,47.3724648 102.228081,47.3724648 C107.517688,47.3724648 110.955852,40.5494001 112.917059,34.7898168 C112.934815,34.7946582 112.947728,34.8043408 112.965484,34.810796 C116.766834,35.8532983 119.536735,30.9909771 118.368082,28.3621284" id="Fill-55" fill="#FF6D6D"></path>
                            <path d="M90.0390625,34.8101505 L88.8913936,27.8805762" id="Stroke-57" stroke="#F04F4F" stroke-width="0.781"></path>
                            <path d="M114.993839,26.9539434 L112.916413,34.7904623" id="Stroke-59" stroke="#F04F4F" stroke-width="0.781"></path>
                            <path d="M61.8470849,117.01517 L70.1745445,109.275478 C70.1745445,109.275478 71.0510342,95.1080973 72.2196872,91.7482059 C73.3883402,88.3899283 79.8159316,82.2543342 82.4454008,82.1090939 C85.07487,81.9638536 75.7256462,90.2877344 75.7256462,90.2877344 C75.7256462,90.2877344 88.8729922,85.176891 89.3120441,85.9063198 C89.7494819,86.6373625 78.0629521,93.2102912 78.0629521,93.2102912 C78.0629521,93.2102912 89.7494819,88.6820226 90.0416452,90.1424941 C90.3338084,91.6029656 79.3768796,95.9843802 79.3768796,95.9843802 C79.3768796,95.9843802 89.4573187,93.9397201 89.4573187,94.9612432 C89.4573187,95.9843802 80.9845846,98.4663749 80.9845846,98.4663749 C80.9845846,98.4663749 82.8844527,107.522912 77.3317369,110.516475 L66.9607488,127.385325 L61.8470849,117.01517 Z" id="Fill-61" fill="#FF6D6D"></path>
                            <path d="M50.6717601,74.2035051 C32.2654757,87.1831431 21.7475989,127.385647 21.7475989,127.385647 C16.7065723,128.042456 17.1440101,135.709528 17.1440101,135.709528 C17.1440101,135.709528 5.74964353,158.713972 19.7750934,167.914135 C33.7989292,177.115913 70.1740603,125.633082 70.1740603,125.633082 L63.3816684,111.830415 L58.1227299,115.99397 C60.970111,97.3709405 51.6208871,74.2228705 51.6208871,74.2228705 L50.6717601,74.2035051 Z" id="Fill-63" fill="#FFFFFF"></path>
                            <path d="M63.3808613,111.831061 C63.3808613,111.831061 52.6434585,118.951061 50.890479,120.264679 C49.1374995,121.57991 46.0705926,124.75583 46.0705926,124.75583 C46.0705926,124.75583 36.9764062,129.68593 35.1136638,133.410536" id="Stroke-65" stroke="#1656BD" stroke-width="0.781"></path>
                            <path d="M32.1917085,123.734307 C32.1917085,123.734307 36.3078205,119.249611 46.0702697,124.75583" id="Stroke-67" stroke="#1656BD" stroke-width="0.781"></path>
                            <path d="M53.1386833,78.4333856 C53.1386833,78.4333856 60.4153236,95.0940574 58.1216,115.992517" id="Stroke-69" stroke="#1656BD" stroke-width="0.781"></path>
                            <path d="M110.347636,428.544234 L129.717575,428.544234" id="Stroke-71" stroke="#1E2D45" stroke-width="1.02"></path>
                            <path d="M41.6322939,428.544234 L61.0022328,428.544234" id="Stroke-73" stroke="#1E2D45" stroke-width="1.02"></path>
                            <g id="Group-77" transform="translate(138.427207, 74.092902)">
                                <mask id="mask-20" fill="white">
                                    <use xlink:href="#path-19"></use>
                                </mask>
                                <g id="Clip-76"></g>
                                <path d="M12.956291,0.129645494 C25.7533639,12.7639344 52.9261599,65.9993315 52.0496701,82.8681809 C51.1715662,99.7370304 10.8530384,125.149235 10.8530384,125.149235 L0.992125391,111.567657 C0.992125391,111.567657 4.7176103,108.719334 6.90802756,109.156668 L23.1238947,83.7444638 C23.1238947,83.7444638 17.8649563,80.6766668 19.1788838,77.8283439 C19.1788838,77.8283439 5.74421706,51.1315701 2.52557889,43.6533104 C-5.5823547,24.812421 8.04762563,-0.674017285 12.956291,0.129645494" id="Fill-75" fill="#FFFFFF" mask="url(#mask-20)"></path>
                            </g>
                            <path d="M160.893492,148.416921 C160.893492,148.416921 164.181539,140.96771 168.124936,140.530375" id="Stroke-78" stroke="#1656BD" stroke-width="0.781"></path>
                            <path d="M164.509537,155.427669 C164.509537,155.427669 167.468295,152.579346 172.946759,155.427669" id="Stroke-80" stroke="#1656BD" stroke-width="0.781"></path>
                            <g id="Group-84" transform="translate(2.699389, 3.617384)">
                                <mask id="mask-22" fill="white">
                                    <use xlink:href="#path-21"></use>
                                </mask>
                                <g id="Clip-83"></g>
                                <path d="M61.6846738,30.9248792 C61.6846738,47.9470378 47.8819782,61.7464763 30.8558019,61.7464763 C13.8312398,61.7464763 0.0285442131,47.9470378 0.0285442131,30.9248792 C0.0285442131,13.9043343 13.8312398,0.104895744 30.8558019,0.104895744 C47.8819782,0.104895744 61.6846738,13.9043343 61.6846738,30.9248792" id="Fill-82" mask="url(#mask-22)"></path>
                            </g>
                            <g id="Group-87">
                                <mask id="mask-24" fill="white">
                                    <use xlink:href="#path-23"></use>
                                </mask>
                                <g id="Clip-86"></g>
                                <path d="M61.6564525,31.1460614 C61.6564525,48.16822 47.8537568,61.9676586 30.8275806,61.9676586 C13.8030184,61.9676586 0.000322832315,48.16822 0.000322832315,31.1460614 C0.000322832315,14.1239028 13.8030184,0.324464228 30.8275806,0.324464228 C47.8537568,0.324464228 61.6564525,14.1239028 61.6564525,31.1460614" id="Fill-85" fill="#F04F4F" mask="url(#mask-24)"></path>
                            </g>
                            <mask id="mask-26" fill="white">
                                <use xlink:href="#path-25"></use>
                            </mask>
                            <g id="Clip-89"></g>
                            <polygon id="Fill-88" fill="#FFFFFF" mask="url(#mask-26)" points="12.1966049 41.5041127 32.9159828 41.5041127 32.9159828 20.7880101 12.1966049 20.7880101"></polygon>
                            <polygon id="Fill-90" fill="#FFFFFF" mask="url(#mask-26)" points="49.4603319 38.8036121 36.5179844 31.0445546 49.4603319 23.4888335"></polygon>
                        </g>
                    </g>
                    <g id="Group-7" style="mix-blend-mode: multiply;" transform="translate(10.000000, 460.000000)">
                        <g id="Group-3">
                            <mask id="mask-28" fill="white">
                                <use xlink:href="#path-27"></use>
                            </mask>
                            <g id="Clip-2"></g>
                            <path d="M57.8462222,6.5037375 C57.8462222,10.0917375 44.8973611,13.0004875 28.9231111,13.0004875 C12.9488611,13.0004875 0,10.0917375 0,6.5037375 C0,2.9157375 12.9488611,0.0069875 28.9231111,0.0069875 C44.8973611,0.0069875 57.8462222,2.9157375 57.8462222,6.5037375" id="Fill-1" fill="#CEDBED" mask="url(#mask-28)"></path>
                        </g>
                        <g id="Group-6" transform="translate(92.000000, 0.000000)">
                            <mask id="mask-30" fill="white">
                                <use xlink:href="#path-29"></use>
                            </mask>
                            <g id="Clip-5"></g>
                            <path d="M58.8447972,6.5037375 C58.8447972,10.0917375 45.8959361,13.0004875 29.9216861,13.0004875 C13.9474361,13.0004875 0.998575,10.0917375 0.998575,6.5037375 C0.998575,2.9157375 13.9474361,0.0069875 29.9216861,0.0069875 C45.8959361,0.0069875 58.8447972,2.9157375 58.8447972,6.5037375" id="Fill-4" fill="#CEDBED" mask="url(#mask-30)"></path>
                        </g>
                    </g>
                </g>
                <g id="Group-3" transform="translate(1225.000000, 20.000000)">
                    <mask id="mask-32" fill="white">
                        <use xlink:href="#path-31"></use>
                    </mask>
                    <g id="Clip-2"></g>
                    <path d="M84.1182,41.5802 L8.5632,41.5802 C-4.7798,41.5802 0.4442,35.5152 4.5032,33.9552 C6.7682,33.0852 12.1902,31.5152 16.5432,30.2952 C20.0152,29.3232 22.9102,26.8722 24.3282,23.5562 C26.8362,17.6952 33.0812,8.9782 47.8382,10.4232 C50.4492,10.6792 52.9962,9.6012 54.7432,7.6432 C58.3532,3.5992 65.3662,-2.2008 74.0672,0.8562 C83.7112,4.2452 85.7102,19.1972 86.1092,26.4052 C86.2312,28.6192 87.6392,30.5422 89.7142,31.3262 C92.2222,32.2752 95.2362,33.9692 95.7282,36.7282 C96.5952,41.5802 89.8372,41.5802 84.1182,41.5802" id="Fill-1" fill="#A1C1ED" mask="url(#mask-32)"></path>
                </g>
                <g id="Asset-2" transform="translate(970.000000, 359.000000)" fill-rule="nonzero">
                    <rect id="Rectangle-path" fill="#967C45" x="12.66" y="158.56" width="46.16" height="6.61"></rect>
                    <rect id="Rectangle-path" fill="#967C45" x="13.38" y="138.79" width="44.72" height="6.61"></rect>
                    <path d="M4,214.31 C3.13192845,214.317371 2.30322403,213.948355 1.72791764,213.298259 C1.15261124,212.648163 0.887115338,211.780732 1,210.92 L16.91,103.58 L22.91,103.58 L6.91,211.79 C6.67784312,213.223638 5.45210067,214.285106 4,214.31 Z" id="Shape" fill="#786337"></path>
                    <path d="M67.71,214.31 C68.5640869,214.294488 69.3710583,213.915613 69.928553,213.268385 C70.4860477,212.621156 70.7411905,211.76696 70.63,210.92 L54.75,103.58 L48.75,103.58 L64.75,211.79 C64.9853703,213.242114 66.2389345,214.309337 67.71,214.31 Z" id="Shape" fill="#786337"></path>
                    <polygon id="Shape" fill="url(#linearGradient-33)" points="19.95 123.4 22.89 103.58 16.91 103.58 13.74 124.99"></polygon>
                    <polygon id="Shape" fill="url(#linearGradient-34)" points="54.75 103.58 48.78 103.58 50.55 115.55 56.31 114.08"></polygon>
                    <ellipse id="Oval" fill="#786337" cx="35.83" cy="99.82" rx="28.42" ry="9.68"></ellipse>
                    <path d="M35.83,106 C21.88,106 10.29,102.57 7.83,98.06 C7.53152578,98.592075 7.37001517,99.1900079 7.36,99.8 C7.36,105.15 20.08,109.48 35.78,109.48 C51.48,109.48 64.2,105.14 64.2,99.8 C64.1899848,99.1900079 64.0284742,98.592075 63.73,98.06 C61.37,102.6 49.78,106 35.83,106 Z" id="Shape" fill="url(#linearGradient-35)" opacity="0.45"></path>
                    <path d="M41,37 C49.28,34.15 50.77,27 51,18.94 C51.23,10.88 59,9.71 60.64,18.94 C62.28,28.17 60.78,40.8 40.96,43.94 L41,37 Z" id="Shape" fill="#187D38"></path>
                    <path d="M50.69,23.26 C49.94,29.43 47.7,34.63 41,37 L41,43.92 C44.6750374,43.4171242 48.2405571,42.3052228 51.55,40.63 C55.27,34.12 50.11,28 50.69,23.26 Z" id="Shape" fill="url(#linearGradient-36)"></path>
                    <path d="M27.43,46.79 C21.63,45.57 18.72,45.79 15.57,40.59 C12.42,35.39 7.24,37.35 8.74,43.77 C10.24,50.19 16.34,51.13 27.74,50.46 L27.43,46.79 Z" id="Shape" fill="#187D38"></path>
                    <path d="M35.83,0 C30.22,0 25.75,8.53 26.05,18.69 L27.64,72 L44,72 L45.58,18.66 C45.91,8.53 41.45,0 35.83,0 Z" id="Shape" fill="#187D38"></path>
                    <path d="M41.45,72 L42.34,72 L43.05,5.74 C42.7875737,5.21157047 42.4971616,4.6975076 42.18,4.2 L41.45,72 Z" id="Shape" fill="#6AB883"></path>
                    <path d="M37.41,72 L38.3,72 L38.55,0.71 C38.2636619,0.557599327 37.9661353,0.427222473 37.66,0.32 L37.41,72 Z" id="Shape" fill="#6AB883"></path>
                    <path d="M33.37,72 L34.26,72 L34,0.33 C33.6938647,0.437222473 33.3963381,0.567599327 33.11,0.72 L33.37,72 Z" id="Shape" fill="#6AB883"></path>
                    <path d="M29.32,72 L30.21,72 L29.49,4.23 C29.1728709,4.72752711 28.8824597,5.24158823 28.62,5.77 L29.32,72 Z" id="Shape" fill="#6AB883"></path>
                    <path d="M44.84,44.71 C44.84,50.87 27.43,57.71 27.43,64.89 L27.64,72 L44,72 L44.84,44.71 Z" id="Shape" fill="url(#linearGradient-37)"></path>
                    <path d="M45.53,96.82 L26.14,96.82 C25.1294814,96.8285708 24.2713358,96.0819841 24.14,95.08 L20.6,68.08 L51,68.08 L47.46,95.08 C47.3324056,96.0558602 46.5138192,96.7938604 45.53,96.82 Z" id="Shape" fill="#1656BD"></path>
                </g>
                <g id="Asset-1" transform="translate(1044.000000, 320.000000)">
                    <rect id="Rectangle-path" fill="#967C45" fill-rule="nonzero" x="42" y="180" width="61" height="9"></rect>
                    <rect id="Rectangle-path" fill="#967C45" fill-rule="nonzero" x="43" y="154" width="59" height="9"></rect>
                    <path d="M30.8580159,254 C29.7292901,253.979406 28.6639862,253.477949 27.9335548,252.623406 C27.2031235,251.768863 26.8781042,250.643758 27.0413152,249.534781 L48.0686405,108 L56,108 L34.7172821,250.675736 C34.430851,252.576061 32.7934488,253.986474 30.8580159,254 Z" id="Shape" fill="#786337" fill-rule="nonzero"></path>
                    <path d="M115.080712,254 C116.219093,253.999605 117.301093,253.506819 118.045514,252.649711 C118.789936,251.792604 119.123268,250.655815 118.958881,249.534781 L97.9120305,108 L90,108 L111.230851,250.675736 C111.516584,252.576061 113.149996,253.986474 115.080712,254 Z" id="Shape" fill="#786337" fill-rule="nonzero"></path>
                    <polygon id="Shape" fill="url(#linearGradient-38)" fill-rule="nonzero" points="52.1448598 134.843812 56 108 48.1635514 108 44 137"></polygon>
                    <polygon id="Shape" fill="url(#linearGradient-39)" fill-rule="nonzero" points="97.9403409 108 90 108 92.3579545 123 100 121.153434"></polygon>
                    <ellipse id="Oval" fill="#786337" fill-rule="nonzero" cx="72.5" cy="103" rx="37.5" ry="13"></ellipse>
                    <path d="M72.5,111.425631 C54.0883459,111.425631 38.7922932,106.921422 35.6203008,101 C35.2264074,101.699495 35.0132582,102.485422 35,103.287184 C35,110.303087 51.7904135,116 72.5,116 C93.2095865,116 110,110.303087 110,103.287184 C109.986742,102.485422 109.773593,101.699495 109.379699,101 C106.207707,106.921422 90.8975564,111.425631 72.5,111.425631 Z" id="Shape" fill="url(#linearGradient-40)" fill-rule="nonzero" opacity="0.45"></path>
                    <path d="M19.5611628,0 L126.396279,0 C130.595698,2.55379657e-16 134,3.38099306 134,7.55165936 L134,90 L12,90 L12,7.55165936 C11.9999345,3.39744365 15.3783732,0.0232512068 19.5611628,0 Z" id="Shape" fill="#236FE8" fill-rule="nonzero"></path>
                    <polygon id="Shape" fill="url(#linearGradient-41)" fill-rule="nonzero" points="145 98 0 98 11.8211888 90 133.178811 90"></polygon>
                    <rect id="Rectangle-path" fill="url(#linearGradient-42)" fill-rule="nonzero" x="0" y="98" width="145" height="4"></rect>
                    <rect id="Rectangle-path" fill="#6AB883" fill-rule="nonzero" transform="translate(73.000000, 46.000000) rotate(90.000000) translate(-73.000000, -46.000000) " x="32" y="-10" width="82" height="112" rx="3.72"></rect>
                    <path d="M16.928203,85 L127.127773,85 C127.642064,84.9629707 128.030288,84.5237198 127.998139,84.0152374 L127.998139,34.3887478 C124.418408,35.9421762 125.934529,57.7040438 123.126897,61.6430944 C120.319265,65.582145 117.174716,76.4977535 117.174716,76.4977535 C117.174716,76.4977535 114.01613,66.1646806 114.802267,62.5168978 C115.588404,58.8691151 113.974016,53.3766361 112.654428,50.033991 C111.334841,46.691346 113.145764,41.5733542 110.829467,34.4303575 C107.684919,37.2043368 107.684919,49.6872436 104.540371,52.7386208 C101.395823,55.789998 97.9564729,66.7333464 97.9564729,66.7333464 C97.9564729,66.7333464 95.2892222,53.7511233 95.4576801,47.4403204 C95.6261381,41.1295175 92.9729255,36.4414925 92.9729255,31.5731588 C92.9729255,26.7048252 92.8044675,19.7143973 89.9968352,14 C87.8489964,16.5659308 86.515371,24.5966009 85.8555774,28.7436999 C85.1957838,32.890799 84.5359902,39.8396171 82.3881515,46.4694276 C81.3619573,49.9731038 79.8502308,53.3197158 77.8959397,56.4141434 L65.4160138,60.1451455 C65.4160138,60.1451455 52.7816682,65.4157062 52.332447,50.17269 C51.8832259,34.9296738 46.2960375,26.7880445 46.2960375,26.7880445 C46.2960375,26.7880445 45.4677859,12.9181481 42.4916956,14.0693495 C39.5156053,15.2205509 41.3405663,26.857394 38.6873538,28.7436999 C36.0341412,30.6300059 32.6790205,56.0119164 32.6790205,56.0119164 C30.4329146,52.3502637 16.0016843,44.9159992 16.0016843,44.9159992 L16.0016843,84.0152374 C15.9863147,84.26877 16.0766462,84.5174698 16.2516703,84.7034964 C16.4266944,84.889523 16.6711569,84.9966635 16.928203,85 Z" id="Shape" fill="#187D38" fill-rule="nonzero"></path>
                    <path d="M111,84.6707435 C103.083655,80.1914219 86.0100231,78 86.0100231,78 L74,78.5099535 L61.9899769,78 C61.9899769,78 44.8735544,80.1914219 37,84.6707435 C38.1358858,86.1396155 39.9234732,87.0032588 41.8211257,86.9999908 L106.178874,86.9999908 C108.076527,87.0032588 109.864114,86.1396155 111,84.6707435 Z" id="Shape" fill="#FFFFFF" fill-rule="nonzero"></path>
                    <path d="M84,79.098936 L79.2944069,82.919499 C75.5360586,85.6935003 70.4909851,85.6935003 66.7326368,82.919499 L62,79.098936 L63.7713583,55 L82.1880762,55 L84,79.098936 Z" id="Shape" fill="#FF6D6D" fill-rule="nonzero"></path>
                    <polygon id="Shape" fill="url(#linearGradient-43)" fill-rule="nonzero" points="84 72 82.6664439 55 63.5474599 55 63 62.0211382"></polygon>
                    <path d="M59.5018931,42.6505046 L57.8086442,36.0381523 C57.8086442,36.0381523 45.3350441,40.9903821 43.3878079,38.2891659 C40.6927201,34.5890624 52.5172415,21.181463 64.2147691,16.4402657 C75.9122968,11.6990684 79.8914316,14.7238679 80.3006334,18.2692142 C80.3006334,18.2692142 93,19.2540326 93,30.2417925 C93,41.2295523 88.5128905,45 88.5128905,45 L59.5018931,42.6505046 Z" id="Shape" fill="#1E2D45" fill-rule="nonzero"></path>
                    <path d="M61.8031599,41.6039421 C61.8031599,41.6039421 60.1778216,38.8815044 57.370419,39.0040141 C54.5630164,39.1265238 55.8928387,48.9817485 63,47.9199978 L61.8031599,41.6039421 Z" id="Shape" fill="#CC5050" fill-rule="nonzero"></path>
                    <path d="M87.1968401,41.6039421 C87.1968401,41.6039421 88.8221784,38.8815044 91.629581,39.0040141 C94.4369836,39.1265238 93.1071613,48.9817485 86,47.9199978 L87.1968401,41.6039421 Z" id="Shape" fill="#CC5050" fill-rule="nonzero"></path>
                    <path d="M60.0073064,35.3328076 C60.0073064,35.3328076 59.2058796,63 74.3900554,63 C77.9249201,63 87.5849754,61.29653 88,39.7760252 C88,39.7760252 78.8122141,33.5299685 75.4490837,27 C70.6038258,30.2960012 65.4292758,33.0883307 60.0073064,35.3328076 Z" id="Shape" fill="#FF6D6D" fill-rule="nonzero"></path>
                    <circle id="Oval" fill="#1E2D45" fill-rule="nonzero" cx="66" cy="43" r="1"></circle>
                    <circle id="Oval" fill="#1E2D45" fill-rule="nonzero" cx="79" cy="43" r="1"></circle>
                    <polyline id="Shape" stroke="#A34646" stroke-width="0.81" stroke-linecap="round" stroke-linejoin="round" points="71.3222222 43 71 50 73 50"></polyline>
                    <path d="M68,52 L78,52 C78,52 76.4531886,56.8835331 72.5725916,56.9981028 C68.6919946,57.1126725 68,52 68,52 Z" id="Shape" fill="#FFFFFF" fill-rule="nonzero"></path>
                    <path d="M63,38.52 L68,38" id="Shape" stroke="#1E2D45" stroke-width="1.07"></path>
                    <path d="M82,38.64 L77,38" id="Shape" stroke="#1E2D45" stroke-width="1.07"></path>
                    <circle id="Oval" fill="url(#linearGradient-44)" fill-rule="nonzero" cx="81" cy="51" r="3"></circle>
                </g>
            </g>
        </g>
    </g>
</svg>