<?xml version="1.0" encoding="UTF-8"?>
<svg width="150px" height="29px" viewBox="0 0 150 29" version="1.1" xmlns="http://www.w3.org/2000/svg" xmlns:xlink="http://www.w3.org/1999/xlink">
    <!-- Generator: Sketch 51.3 (57544) - http://www.bohemiancoding.com/sketch -->
    <title>Group 33</title>
    <desc>Created with Sketch.</desc>
    <defs>
        <polygon id="path-1" points="0 28.3547258 149.984947 28.3547258 149.984947 0.152975496 0 0.152975496"></polygon>
    </defs>
    <g id="Page-1" stroke="none" stroke-width="1" fill="none" fill-rule="evenodd">
        <g id="Desktop-HD-Copy-2" transform="translate(-645.000000, -47.000000)">
            <g id="Group-33" transform="translate(645.000000, 47.000000)">
                <g id="Group-9" transform="translate(0.350058, 8.598483)" fill="#44A5CE">
                    <path d="M-1.75029172e-05,10.2599475 L1.34735706,8.87774212 C2.03032089,9.74361144 2.71310968,10.2434947 3.6953734,10.2434947 C4.79473162,10.2434947 5.54350642,9.51029755 5.54350642,7.96233956 L5.54350642,0.320915986 L7.64140607,0.320915986 L7.64140607,8.01187281 C7.64140607,9.39407818 7.24146441,10.4265753 6.55955076,11.1084889 C5.87658693,11.7914527 4.8936231,12.140986 3.72932905,12.140986 C1.93055426,12.140986 0.765210035,11.3088973 -1.75029172e-05,10.2599475" id="Fill-1"></path>
                    <path d="M21.2290957,6.18110268 L21.2290957,6.14714702 C21.2290957,3.88349475 19.5815461,2.00245624 17.2674854,2.00245624 C14.9534247,2.00245624 13.3387806,3.85058926 13.3387806,6.11424154 L13.3387806,6.14714702 C13.3387806,8.41184947 14.9863302,10.292888 17.3003909,10.292888 C19.6144516,10.292888 21.2290957,8.44475496 21.2290957,6.18110268 M11.1911727,6.18110268 L11.1911727,6.14714702 C11.1911727,2.86745041 13.7212194,0.121242707 17.3003909,0.121242707 C20.8795624,0.121242707 23.3774037,2.83454492 23.3774037,6.11424154 L23.3774037,6.14714702 C23.3774037,9.42684364 20.8464819,12.1739265 17.2674854,12.1739265 C13.6883139,12.1739265 11.1911727,9.4607993 11.1911727,6.18110268" id="Fill-3"></path>
                    <path d="M25.4636464,10.2599475 L26.811021,8.87774212 C27.4939848,9.74361144 28.1767736,10.2434947 29.1588623,10.2434947 C30.2583956,10.2434947 31.0071704,9.51029755 31.0071704,7.96233956 L31.0071704,0.320915986 L33.10507,0.320915986 L33.10507,8.01187281 C33.10507,9.39407818 32.7051284,10.4265753 32.0232147,11.1084889 C31.3402509,11.7914527 30.357287,12.140986 29.192993,12.140986 C27.3940432,12.140986 26.228874,11.3088973 25.4636464,10.2599475" id="Fill-5"></path>
                    <path d="M46.6927596,6.18110268 L46.6927596,6.14714702 C46.6927596,3.88349475 45.04521,2.00245624 42.7311494,2.00245624 C40.4170887,2.00245624 38.8024446,3.85058926 38.8024446,6.11424154 L38.8024446,6.14714702 C38.8024446,8.41184947 40.4499942,10.292888 42.7640548,10.292888 C45.0781155,10.292888 46.6927596,8.44475496 46.6927596,6.18110268 M36.6548366,6.18110268 L36.6548366,6.14714702 C36.6548366,2.86745041 39.1848833,0.121242707 42.7640548,0.121242707 C46.3432264,0.121242707 48.8410677,2.83454492 48.8410677,6.11424154 L48.8410677,6.14714702 C48.8410677,9.42684364 46.3101459,12.1739265 42.7311494,12.1739265 C39.1519778,12.1739265 36.6548366,9.4607993 36.6548366,6.18110268" id="Fill-7"></path>
                </g>
                <polygon id="Fill-10" fill="#3C3C3B" points="53.778203 8.91936406 54.5927888 8.91936406 62.6353792 19.0579288 62.6353792 8.91936406 63.4664177 8.91936406 63.4664177 20.5729813 62.8182847 20.5729813 54.6102917 10.2173804 54.6102917 20.5729813 53.778203 20.5729813"></polygon>
                <g id="Group-32" transform="translate(0.000000, 0.022054)">
                    <path d="M78.4720187,14.7575321 L78.4720187,14.7235764 C78.4720187,11.8439965 76.3749942,9.47952742 73.494189,9.47952742 C70.6135589,9.47952742 68.55014,11.810916 68.55014,14.6906709 L68.55014,14.7235764 C68.55014,17.6043816 70.6473396,19.9678005 73.5281447,19.9678005 C76.4077246,19.9678005 78.4720187,17.637287 78.4720187,14.7575321 M67.6504901,14.7575321 L67.6504901,14.7235764 C67.6504901,11.5445216 69.9985064,8.69767211 73.5281447,8.69767211 C77.0567328,8.69767211 79.3709685,11.510741 79.3709685,14.6906709 L79.3709685,14.7235764 C79.3709685,17.9036814 77.0229522,20.7503559 73.494189,20.7503559 C69.9654259,20.7503559 67.6504901,17.9374621 67.6504901,14.7575321" id="Fill-11" fill="#3C3C3B"></path>
                    <polygon id="Fill-13" fill="#3C3C3B" points="83.5714411 8.89731039 84.387077 8.89731039 89.0656068 15.789084 93.7429113 8.89731039 94.5594224 8.89731039 94.5594224 20.5509277 93.6935531 20.5509277 93.6935531 10.4288156 89.0818845 17.1383839 89.0158985 17.1383839 84.4044049 10.4288156 84.4044049 20.5509277 83.5714411 20.5509277"></polygon>
                    <mask id="mask-2" fill="white">
                        <use xlink:href="#path-1"></use>
                    </mask>
                    <g id="Clip-16"></g>
                    <polygon id="Fill-15" fill="#3C3C3B" mask="url(#mask-2)" points="99.3761377 20.5508751 100.242007 20.5508751 100.242007 8.89725788 99.3761377 8.89725788"></polygon>
                    <path d="M104.555303,14.7575321 L104.555303,14.7235764 C104.555303,11.4274271 107.019364,8.69767211 110.38255,8.69767211 C112.464172,8.69767211 113.71248,9.46289965 114.910904,10.5613827 L114.294802,11.1949883 C113.278757,10.2127246 112.114463,9.47952742 110.365922,9.47952742 C107.568781,9.47952742 105.454253,11.7605076 105.454253,14.6906709 L105.454253,14.7235764 C105.454253,17.6710677 107.601511,19.9678005 110.38255,19.9678005 C112.06318,19.9678005 113.212771,19.3187923 114.394568,18.1534481 L114.977765,18.7191424 C113.74556,19.934895 112.412888,20.7503559 110.349469,20.7503559 C107.019364,20.7503559 104.555303,18.1032147 104.555303,14.7575321" id="Fill-17" fill="#3C3C3B" mask="url(#mask-2)"></path>
                    <polygon id="Fill-18" fill="#C0E3F0" mask="url(#mask-2)" points="137.772725 0.153028005 125.561989 7.20267795 129.776167 15.0557118"></polygon>
                    <polygon id="Fill-19" fill="#3AB0D9" mask="url(#mask-2)" points="128.679574 23.1319253 137.772515 28.3546208 149.9843 21.3228238"></polygon>
                    <polygon id="Fill-20" fill="#7CCBE2" mask="url(#mask-2)" points="145.138985 12.9504959 149.985018 7.20376313 137.772532 0.153063011"></polygon>
                    <polygon id="Fill-21" fill="#7CCBE2" mask="url(#mask-2)" points="129.776254 15.0557293 135.474329 18.4714236 137.772812 0.153045508"></polygon>
                    <polygon id="Fill-22" fill="#A9DAE9" mask="url(#mask-2)" points="135.436838 18.4557935 142.023361 22.3823979 137.772602 0.153518086"></polygon>
                    <polygon id="Fill-23" fill="#44A5CE" mask="url(#mask-2)" points="137.772725 0.153028005 141.990753 22.3537281 149.984335 21.3228063"></polygon>
                    <polygon id="Fill-24" fill="#86CEE7" mask="url(#mask-2)" points="125.561359 7.20334306 129.777462 15.0563769 125.561359 21.3036931"></polygon>
                    <polygon id="Fill-25" fill="#3AB0D9" mask="url(#mask-2)" points="125.561359 21.3040432 129.778337 15.050951 128.680729 23.1344982"></polygon>
                    <polygon id="Fill-26" fill="#44A5CE" mask="url(#mask-2)" points="129.776079 15.0552917 128.676546 23.1321879 142.022345 22.3421062"></polygon>
                    <polygon id="Fill-27" fill="#A9DAE9" mask="url(#mask-2)" points="145.136429 12.9504959 149.984387 21.3237165 149.984387 7.20271295"></polygon>
                    <path d="M130.970688,11.0128069 L130.970688,10.8413069 L130.970688,11.0128069 Z" id="Fill-28" fill="#FEFEFE" mask="url(#mask-2)"></path>
                    <polygon id="Fill-29" fill="#FEFEFE" mask="url(#mask-2)" points="129.139703 12.1532905 129.048203 12.1532905 129.228203 12.1532905"></polygon>
                    <polygon id="Fill-30" fill="#FEFEFE" mask="url(#mask-2)" points="146.828004 8.90201867 146.739504 8.90201867 146.919504 8.90201867"></polygon>
                    <polygon id="Fill-31" fill="#9C145D" mask="url(#mask-2)" points="128.511721 17.9589207 128.599721 17.9589207 128.690721 17.9589207"></polygon>
                </g>
            </g>
        </g>
    </g>
</svg>